<svg width="93" height="40" viewBox="0 0 93 40" fill="none" xmlns="http://www.w3.org/2000/svg">
<path d="M26.5119 4.10239C26.1568 3.60575 25.6381 3.59149 25.0471 3.57523C24.9802 3.57339 24.9123 3.57153 24.8436 3.56893C24.7913 3.56673 24.7335 3.56758 24.6732 3.56846C24.4335 3.57198 24.1531 3.57609 24.0119 3.39212C23.8481 3.17883 23.8637 2.76663 23.8765 2.42635C23.8805 2.31882 23.8843 2.21841 23.8821 2.1338C23.8591 1.34332 23.8111 0.503628 23.477 0.22292C23.2251 0.0123098 22.4715 0.041487 21.7765 0.0683954C21.5512 0.0771184 21.3321 0.085603 21.1382 0.085603H6.34507C6.04722 0.085603 5.73501 0.0634489 5.42824 0.0416813C4.83049 -0.000733804 4.25342 -0.0416812 3.84363 0.085603C3.24891 0.271231 3.20864 1.24667 3.17072 2.16519L3.16868 2.21461C3.13684 2.97288 2.93112 3.55799 2.24931 3.49906C1.45632 3.43161 0.66724 3.41035 0.308702 4.06594C-0.11474 4.84161 -0.0274095 5.65358 0.129012 7.10792C0.151356 7.31567 0.17511 7.53652 0.198986 7.77225H26.7406C26.7557 7.59995 26.7719 7.42986 26.7878 7.26253C26.9121 5.95406 27.0204 4.81402 26.5119 4.10239Z" fill="#8047F8"/>
<path fill-rule="evenodd" clip-rule="evenodd" d="M2.26597 9.21467C2.68049 14.3395 3.0905 19.4701 3.50051 24.6009L3.50076 24.604C3.72338 27.3898 3.946 30.1757 4.16935 32.9606H5.01623C5.07394 33.3965 5.13997 33.9347 5.20958 34.5021C5.3509 35.6539 5.50703 36.9264 5.63828 37.7083H5.73195C6.59457 37.42 12.5579 35.0916 12.5606 25.8218C12.5595 25.7954 12.5605 25.7689 12.5635 25.7427H11.0902C11.0189 25.7421 10.9497 25.7203 10.8934 25.6808C10.8371 25.6413 10.7968 25.5861 10.7786 25.5238C10.635 25.1999 10.5192 24.8664 10.4323 24.5264C9.56559 24.9736 8.87731 25.6564 8.46558 26.4775C8.07473 25.6365 8.02357 24.6983 8.32104 23.8267C8.61851 22.9551 9.24569 22.2057 10.093 21.7093C10.1039 19.0043 11.2126 16.3968 13.2093 14.3804L13.2404 14.3553C13.2985 14.3095 13.3728 14.284 13.4498 14.2834C13.4944 14.2838 13.5384 14.2925 13.5791 14.309C13.6202 14.3257 13.657 14.35 13.6871 14.3804C15.7071 16.3996 16.8099 19.0321 16.7757 21.7531C17.6388 22.2356 18.2787 22.9845 18.5768 23.8608C18.8748 24.7371 18.8106 25.6813 18.3962 26.5181C17.9867 25.6957 17.2978 25.0123 16.4294 24.5671C16.3764 24.8966 16.2787 25.219 16.1386 25.527C16.0901 25.6583 15.9932 25.7427 15.8962 25.7427H14.325C14.3275 25.7584 14.3293 25.7742 14.3303 25.7901L14.3309 25.7937V25.8014C14.3314 25.815 14.3315 25.8287 14.3309 25.8424C14.3524 35.3783 20.6928 37.5428 21.2272 37.7083H21.41C21.4567 36.9572 21.6086 35.9208 21.7567 34.9104C21.8588 34.2142 21.9591 33.5302 22.0218 32.9606H22.8785C23.1527 29.4527 23.4347 25.9546 23.7167 22.4564L23.7169 22.4545L23.7169 22.4535C24.0777 17.9789 24.4384 13.5042 24.7828 9.0087H2.32082C2.25617 9.02024 2.26058 9.11685 2.26597 9.21467ZM13.4498 14.2834L13.4482 14.2834H13.4516L13.4498 14.2834Z" fill="#8047F8"/>
<path d="M34.275 5.69821C34.275 4.43316 34.7521 3.45274 35.7063 2.75696C36.6779 2.04537 38.1352 1.68958 40.0783 1.68958C41.3622 1.68958 42.4552 1.80027 43.3574 2.02165V5.29498C42.3858 5.02615 41.4229 4.89174 40.4687 4.89174C39.5318 4.89174 38.9246 4.99453 38.647 5.2001C38.3694 5.38985 38.2306 5.67449 38.2306 6.05401V14.0238C38.2306 14.7829 38.8812 15.1624 40.1824 15.1624C41.501 15.1624 42.5853 15.0438 43.4354 14.8066V18.0088C42.4986 18.246 41.3622 18.3646 40.0263 18.3646C38.0832 18.3646 36.6345 18.0167 35.6803 17.3209C34.7434 16.6251 34.275 15.6447 34.275 14.3796V5.69821Z" fill="#403937"/>
<path d="M51.0373 7.95159C51.0373 7.35069 50.673 7.05024 49.9443 7.05024C49.2156 7.05024 48.8513 7.35069 48.8513 7.95159V14.5457C48.8513 15.1466 49.2156 15.447 49.9443 15.447C50.673 15.447 51.0373 15.1466 51.0373 14.5457V7.95159ZM44.9997 7.83299C44.9997 6.63119 45.4074 5.69821 46.2228 5.03406C47.0556 4.35409 48.2961 4.01411 49.9443 4.01411C51.5925 4.01411 52.8243 4.35409 53.6397 5.03406C54.4725 5.69821 54.8888 6.63119 54.8888 7.83299V14.6643C54.8888 15.8661 54.4725 16.807 53.6397 17.4869C52.8243 18.1511 51.5925 18.4832 49.9443 18.4832C48.2961 18.4832 47.0556 18.1511 46.2228 17.4869C45.4074 16.807 44.9997 15.8661 44.9997 14.6643V7.83299Z" fill="#403937"/>
<path d="M57.4183 4.08527C57.4183 1.41284 58.9623 0.0766322 62.0505 0.0766322C62.4496 0.0766322 62.9267 0.116165 63.4818 0.195231V2.94672C63.2043 2.9151 62.944 2.89928 62.7011 2.89928C61.8163 2.89928 61.3739 3.2788 61.3739 4.03783V4.25131H63.4818V7.05024H61.3739V18.246H57.4183V7.05024H55.9349V4.25131H57.4183V4.08527Z" fill="#403937"/>
<path d="M65.0933 4.08527C65.0933 1.41284 66.6374 0.0766322 69.7256 0.0766322C70.1246 0.0766322 70.6017 0.116165 71.1569 0.195231V2.94672C70.8793 2.9151 70.6191 2.89928 70.3762 2.89928C69.4914 2.89928 69.049 3.2788 69.049 4.03783V4.25131H71.1569V7.05024H69.049V18.246H65.0933V7.05024H63.6099V4.25131H65.0933V4.08527Z" fill="#403937"/>
<path d="M72.0657 14.261V7.83299C72.0657 6.63119 72.4734 5.69821 73.2888 5.03406C74.1043 4.35409 75.3361 4.01411 76.9842 4.01411C80.1592 4.01411 81.7466 5.28707 81.7466 7.83299V12.6481H75.8392V13.9764C75.8392 14.4508 75.978 14.7908 76.2556 14.9964C76.5505 15.1861 77.1838 15.281 78.1553 15.281C79.1442 15.281 80.2199 15.1229 81.3823 14.8066V17.9376C80.1679 18.238 78.8667 18.3883 77.4787 18.3883C73.87 18.3883 72.0657 17.0125 72.0657 14.261ZM75.8392 9.92033H78.1293V7.88043C78.1293 7.27953 77.7476 6.97908 76.9842 6.97908C76.2209 6.97908 75.8392 7.27953 75.8392 7.88043V9.92033Z" fill="#403937"/>
<path d="M83.2987 14.261V7.83299C83.2987 6.63119 83.7064 5.69821 84.5219 5.03406C85.3373 4.35409 86.5691 4.01411 88.2173 4.01411C91.3922 4.01411 92.9797 5.28707 92.9797 7.83299V12.6481H87.0722V13.9764C87.0722 14.4508 87.211 14.7908 87.4886 14.9964C87.7835 15.1861 88.4168 15.281 89.3884 15.281C90.3773 15.281 91.4529 15.1229 92.6153 14.8066V17.9376C91.4009 18.238 90.0997 18.3883 88.7117 18.3883C85.1031 18.3883 83.2987 17.0125 83.2987 14.261ZM87.0722 9.92033H89.3623V7.88043C89.3623 7.27953 88.9807 6.97908 88.2173 6.97908C87.4539 6.97908 87.0722 7.27953 87.0722 7.88043V9.92033Z" fill="#403937"/>
<path d="M40.5388 26.9797C40.5388 25.8119 39.8626 25.2281 38.5102 25.2281H36.3536V35.874H38.5102C39.8626 35.874 40.5388 35.2771 40.5388 34.0834V26.9797ZM34.8375 24.0214H38.5956C39.7345 24.0214 40.5957 24.2874 41.1793 24.8194C41.763 25.3513 42.0548 26.065 42.0548 26.9602V34.1224C42.0548 35.0436 41.7701 35.7702 41.2007 36.3022C40.6313 36.8341 39.7772 37.1001 38.6383 37.1001H34.8375V24.0214Z" fill="#403937"/>
<path d="M44.5498 34.2781V28.8675C44.5498 27.9463 44.8345 27.2132 45.4039 26.6683C45.9876 26.1104 46.863 25.8314 48.0303 25.8314C49.1976 25.8314 50.0589 26.1104 50.6141 26.6683C51.1835 27.2132 51.4682 27.9463 51.4682 28.8675V32.254H46.0445V34.2197C46.0445 34.8036 46.2438 35.2382 46.6424 35.5237C47.041 35.8091 47.6602 35.9518 48.5001 35.9518C49.34 35.9518 50.2083 35.8351 51.1052 35.6015V36.886C50.3934 37.0936 49.5464 37.1974 48.5642 37.1974C45.8879 37.1974 44.5498 36.2243 44.5498 34.2781ZM46.0445 31.1057H50.0162V28.8675C50.0162 27.6479 49.3542 27.0381 48.0303 27.0381C46.7064 27.0381 46.0445 27.6479 46.0445 28.8675V31.1057Z" fill="#403937"/>
<path d="M54.0636 23.0872H55.5796V37.1001H54.0636V23.0872Z" fill="#403937"/>
<path d="M59.2734 24.7804C58.6613 24.7804 58.3552 24.482 58.3552 23.8852C58.3552 23.2883 58.6613 22.9899 59.2734 22.9899C59.8997 22.9899 60.2129 23.2883 60.2129 23.8852C60.2129 24.482 59.8997 24.7804 59.2734 24.7804ZM58.526 26.1039H60.0421V37.1001H58.526V26.1039Z" fill="#403937"/>
<path d="M67.857 26.026H69.3944L66.7039 37.1001H64.5686L61.8781 26.026H63.4369L64.6113 31.1057L65.6576 36.127C66.0847 33.9732 66.8178 30.6062 67.857 26.026Z" fill="#403937"/>
<path d="M71.0117 34.2781V28.8675C71.0117 27.9463 71.2964 27.2132 71.8658 26.6683C72.4495 26.1104 73.325 25.8314 74.4923 25.8314C75.6596 25.8314 76.5208 26.1104 77.076 26.6683C77.6454 27.2132 77.9301 27.9463 77.9301 28.8675V32.254H72.5064V34.2197C72.5064 34.8036 72.7057 35.2382 73.1043 35.5237C73.5029 35.8091 74.1221 35.9518 74.962 35.9518C75.8019 35.9518 76.6703 35.8351 77.5671 35.6015V36.886C76.8553 37.0936 76.0083 37.1974 75.0261 37.1974C72.3498 37.1974 71.0117 36.2243 71.0117 34.2781ZM72.5064 31.1057H76.4781V28.8675C76.4781 27.6479 75.8161 27.0381 74.4923 27.0381C73.1684 27.0381 72.5064 27.6479 72.5064 28.8675V31.1057Z" fill="#403937"/>
<path d="M84.4544 25.9676H84.9883V27.2911H84.2623C83.7498 27.2911 83.2872 27.4143 82.8743 27.6609C82.7462 27.7387 82.4686 27.9139 82.0416 28.1864V37.1001H80.5255V26.026H81.9775V26.8629C82.0202 26.837 82.127 26.7656 82.2978 26.6488C82.4829 26.5321 82.5896 26.4672 82.6181 26.4542C82.6608 26.4283 82.7533 26.3764 82.8957 26.2985C83.0523 26.2207 83.1662 26.1752 83.2373 26.1623C83.3227 26.1363 83.4366 26.1039 83.579 26.065C83.7925 26.0001 84.0843 25.9676 84.4544 25.9676Z" fill="#403937"/>
<path d="M91.4839 26.026H93L89.6689 40H88.2169L88.8789 37.1001H88.1315L85.4837 26.026H87.0212L88.3023 31.5339L89.2419 36.127C89.5266 34.596 89.8398 33.0649 90.1814 31.5339L91.4839 26.026Z" fill="#403937"/>
</svg>
